<mxfile host="app.diagrams.net" modified="2024-03-19T18:18:38.605Z" agent="Mozilla/5.0 (Windows NT 10.0; Win64; x64) AppleWebKit/537.36 (KHTML, like Gecko) Chrome/122.0.0.0 Safari/537.36" etag="hGYocuZVBCGR5EItMZdx" version="24.0.7" type="github">
  <diagram id="C5RBs43oDa-KdzZeNtuy" name="Page-1">
    <mxGraphModel dx="1800" dy="1096" grid="0" gridSize="10" guides="1" tooltips="1" connect="1" arrows="1" fold="1" page="0" pageScale="1" pageWidth="827" pageHeight="1169" math="0" shadow="0">
      <root>
        <mxCell id="WIyWlLk6GJQsqaUBKTNV-0" />
        <mxCell id="WIyWlLk6GJQsqaUBKTNV-1" parent="WIyWlLk6GJQsqaUBKTNV-0" />
        <mxCell id="WIyWlLk6GJQsqaUBKTNV-2" value="" style="rounded=1;html=1;jettySize=auto;orthogonalLoop=1;fontSize=11;endArrow=block;endFill=0;endSize=8;strokeWidth=1;shadow=0;labelBackgroundColor=none;edgeStyle=orthogonalEdgeStyle;strokeColor=#457B9D;fontColor=default;" parent="WIyWlLk6GJQsqaUBKTNV-1" source="WIyWlLk6GJQsqaUBKTNV-3" target="WIyWlLk6GJQsqaUBKTNV-6" edge="1">
          <mxGeometry relative="1" as="geometry" />
        </mxCell>
        <mxCell id="WIyWlLk6GJQsqaUBKTNV-3" value="Lamp doesn&#39;t work" style="rounded=1;whiteSpace=wrap;html=1;fontSize=12;glass=0;strokeWidth=1;shadow=0;labelBackgroundColor=none;fillColor=#A8DADC;strokeColor=#457B9D;fontColor=#1D3557;" parent="WIyWlLk6GJQsqaUBKTNV-1" vertex="1">
          <mxGeometry x="160" y="-130" width="120" height="40" as="geometry" />
        </mxCell>
        <mxCell id="WIyWlLk6GJQsqaUBKTNV-4" value="Yes" style="rounded=1;html=1;jettySize=auto;orthogonalLoop=1;fontSize=11;endArrow=block;endFill=0;endSize=8;strokeWidth=1;shadow=0;labelBackgroundColor=none;edgeStyle=orthogonalEdgeStyle;strokeColor=#457B9D;fontColor=default;" parent="WIyWlLk6GJQsqaUBKTNV-1" source="WIyWlLk6GJQsqaUBKTNV-6" target="WIyWlLk6GJQsqaUBKTNV-10" edge="1">
          <mxGeometry y="20" relative="1" as="geometry">
            <mxPoint as="offset" />
          </mxGeometry>
        </mxCell>
        <mxCell id="WIyWlLk6GJQsqaUBKTNV-5" value="No" style="edgeStyle=orthogonalEdgeStyle;rounded=1;html=1;jettySize=auto;orthogonalLoop=1;fontSize=11;endArrow=block;endFill=0;endSize=8;strokeWidth=1;shadow=0;labelBackgroundColor=none;strokeColor=#457B9D;fontColor=default;" parent="WIyWlLk6GJQsqaUBKTNV-1" source="WIyWlLk6GJQsqaUBKTNV-6" target="WIyWlLk6GJQsqaUBKTNV-7" edge="1">
          <mxGeometry y="10" relative="1" as="geometry">
            <mxPoint as="offset" />
          </mxGeometry>
        </mxCell>
        <mxCell id="WIyWlLk6GJQsqaUBKTNV-6" value="Lamp&lt;br&gt;plugged in?" style="rhombus;whiteSpace=wrap;html=1;shadow=0;fontFamily=Helvetica;fontSize=12;align=center;strokeWidth=1;spacing=6;spacingTop=-4;rounded=1;labelBackgroundColor=none;fillColor=#A8DADC;strokeColor=#457B9D;fontColor=#1D3557;" parent="WIyWlLk6GJQsqaUBKTNV-1" vertex="1">
          <mxGeometry x="170" y="-40" width="100" height="80" as="geometry" />
        </mxCell>
        <mxCell id="WIyWlLk6GJQsqaUBKTNV-7" value="Plug in lamp" style="rounded=1;whiteSpace=wrap;html=1;fontSize=12;glass=0;strokeWidth=1;shadow=0;labelBackgroundColor=none;fillColor=#A8DADC;strokeColor=#457B9D;fontColor=#1D3557;" parent="WIyWlLk6GJQsqaUBKTNV-1" vertex="1">
          <mxGeometry x="320" y="-20" width="120" height="40" as="geometry" />
        </mxCell>
        <mxCell id="WIyWlLk6GJQsqaUBKTNV-8" value="No" style="rounded=1;html=1;jettySize=auto;orthogonalLoop=1;fontSize=11;endArrow=block;endFill=0;endSize=8;strokeWidth=1;shadow=0;labelBackgroundColor=none;edgeStyle=orthogonalEdgeStyle;strokeColor=#457B9D;fontColor=default;" parent="WIyWlLk6GJQsqaUBKTNV-1" source="WIyWlLk6GJQsqaUBKTNV-10" target="WIyWlLk6GJQsqaUBKTNV-11" edge="1">
          <mxGeometry x="0.3333" y="20" relative="1" as="geometry">
            <mxPoint as="offset" />
          </mxGeometry>
        </mxCell>
        <mxCell id="WIyWlLk6GJQsqaUBKTNV-9" value="Yes" style="edgeStyle=orthogonalEdgeStyle;rounded=1;html=1;jettySize=auto;orthogonalLoop=1;fontSize=11;endArrow=block;endFill=0;endSize=8;strokeWidth=1;shadow=0;labelBackgroundColor=none;strokeColor=#457B9D;fontColor=default;" parent="WIyWlLk6GJQsqaUBKTNV-1" source="WIyWlLk6GJQsqaUBKTNV-10" target="WIyWlLk6GJQsqaUBKTNV-12" edge="1">
          <mxGeometry y="10" relative="1" as="geometry">
            <mxPoint as="offset" />
          </mxGeometry>
        </mxCell>
        <mxCell id="WIyWlLk6GJQsqaUBKTNV-10" value="Bulb&lt;br&gt;burned out?" style="rhombus;whiteSpace=wrap;html=1;shadow=0;fontFamily=Helvetica;fontSize=12;align=center;strokeWidth=1;spacing=6;spacingTop=-4;rounded=1;labelBackgroundColor=none;fillColor=#A8DADC;strokeColor=#457B9D;fontColor=#1D3557;" parent="WIyWlLk6GJQsqaUBKTNV-1" vertex="1">
          <mxGeometry x="170" y="80" width="100" height="80" as="geometry" />
        </mxCell>
        <mxCell id="WIyWlLk6GJQsqaUBKTNV-11" value="Repair Lamp" style="rounded=1;whiteSpace=wrap;html=1;fontSize=12;glass=0;strokeWidth=1;shadow=0;labelBackgroundColor=none;fillColor=#A8DADC;strokeColor=#457B9D;fontColor=#1D3557;" parent="WIyWlLk6GJQsqaUBKTNV-1" vertex="1">
          <mxGeometry x="160" y="220" width="120" height="40" as="geometry" />
        </mxCell>
        <mxCell id="WIyWlLk6GJQsqaUBKTNV-12" value="Replace Bulb" style="rounded=1;whiteSpace=wrap;html=1;fontSize=12;glass=0;strokeWidth=1;shadow=0;labelBackgroundColor=none;fillColor=#A8DADC;strokeColor=#457B9D;fontColor=#1D3557;" parent="WIyWlLk6GJQsqaUBKTNV-1" vertex="1">
          <mxGeometry x="320" y="100" width="120" height="40" as="geometry" />
        </mxCell>
        <mxCell id="nt__oqQZL0XNKbxupTnA-4" value="Dashboard" style="text;html=1;align=center;verticalAlign=middle;whiteSpace=wrap;rounded=1;fontSize=80;labelBackgroundColor=none;fontColor=#1D3557;" vertex="1" parent="WIyWlLk6GJQsqaUBKTNV-1">
          <mxGeometry x="160" y="440" width="410" height="80" as="geometry" />
        </mxCell>
        <mxCell id="nt__oqQZL0XNKbxupTnA-49" value="" style="group;rounded=1;labelBackgroundColor=none;fontColor=#FFFFFF;fillColor=none;strokeColor=none;glass=0;shadow=0;gradientColor=none;" vertex="1" connectable="0" parent="WIyWlLk6GJQsqaUBKTNV-1">
          <mxGeometry x="-90" y="530" width="860" height="620" as="geometry" />
        </mxCell>
        <mxCell id="nt__oqQZL0XNKbxupTnA-0" value="" style="ellipse;html=1;shape=startState;fillColor=#000000;rounded=1;labelBackgroundColor=none;" vertex="1" parent="nt__oqQZL0XNKbxupTnA-49">
          <mxGeometry x="435" width="30" height="30" as="geometry" />
        </mxCell>
        <mxCell id="nt__oqQZL0XNKbxupTnA-1" value="" style="edgeStyle=orthogonalEdgeStyle;html=1;verticalAlign=bottom;endArrow=open;endSize=8;strokeColor=#303952;rounded=1;entryX=0.5;entryY=0;entryDx=0;entryDy=0;labelBackgroundColor=none;fontColor=default;" edge="1" source="nt__oqQZL0XNKbxupTnA-0" parent="nt__oqQZL0XNKbxupTnA-49" target="nt__oqQZL0XNKbxupTnA-2">
          <mxGeometry relative="1" as="geometry">
            <mxPoint x="450" y="90" as="targetPoint" />
          </mxGeometry>
        </mxCell>
        <mxCell id="nt__oqQZL0XNKbxupTnA-6" value="" style="edgeStyle=orthogonalEdgeStyle;rounded=1;orthogonalLoop=1;jettySize=auto;html=1;labelBackgroundColor=none;strokeColor=#303952;fontColor=default;" edge="1" parent="nt__oqQZL0XNKbxupTnA-49" source="nt__oqQZL0XNKbxupTnA-2" target="nt__oqQZL0XNKbxupTnA-5">
          <mxGeometry relative="1" as="geometry" />
        </mxCell>
        <mxCell id="nt__oqQZL0XNKbxupTnA-8" value="" style="edgeStyle=orthogonalEdgeStyle;rounded=1;orthogonalLoop=1;jettySize=auto;html=1;labelBackgroundColor=none;strokeColor=#303952;fontColor=default;" edge="1" parent="nt__oqQZL0XNKbxupTnA-49" source="nt__oqQZL0XNKbxupTnA-2" target="nt__oqQZL0XNKbxupTnA-7">
          <mxGeometry relative="1" as="geometry" />
        </mxCell>
        <mxCell id="nt__oqQZL0XNKbxupTnA-2" value="Pantalla Informacion&amp;nbsp;&lt;div&gt;General de los Equipos&lt;/div&gt;" style="rounded=1;whiteSpace=wrap;html=1;labelBackgroundColor=none;fillColor=#303952;strokeColor=#36393d;fontColor=#FFFFFF;" vertex="1" parent="nt__oqQZL0XNKbxupTnA-49">
          <mxGeometry x="390" y="100" width="120" height="60" as="geometry" />
        </mxCell>
        <mxCell id="nt__oqQZL0XNKbxupTnA-10" value="" style="edgeStyle=orthogonalEdgeStyle;rounded=1;orthogonalLoop=1;jettySize=auto;html=1;labelBackgroundColor=none;strokeColor=#303952;fontColor=default;" edge="1" parent="nt__oqQZL0XNKbxupTnA-49" source="nt__oqQZL0XNKbxupTnA-5" target="nt__oqQZL0XNKbxupTnA-9">
          <mxGeometry relative="1" as="geometry" />
        </mxCell>
        <mxCell id="nt__oqQZL0XNKbxupTnA-5" value="Mantenimientos Proximos" style="whiteSpace=wrap;html=1;rounded=1;labelBackgroundColor=none;fillColor=#778BEB;strokeColor=#457B9D;fontColor=#FFFFFF;" vertex="1" parent="nt__oqQZL0XNKbxupTnA-49">
          <mxGeometry x="155" y="100" width="120" height="60" as="geometry" />
        </mxCell>
        <mxCell id="nt__oqQZL0XNKbxupTnA-23" value="" style="edgeStyle=orthogonalEdgeStyle;rounded=1;orthogonalLoop=1;jettySize=auto;html=1;labelBackgroundColor=none;strokeColor=#303952;fontColor=default;" edge="1" parent="nt__oqQZL0XNKbxupTnA-49" source="nt__oqQZL0XNKbxupTnA-7" target="nt__oqQZL0XNKbxupTnA-22">
          <mxGeometry relative="1" as="geometry" />
        </mxCell>
        <mxCell id="nt__oqQZL0XNKbxupTnA-7" value="Equipos de Depresiacion Atla&lt;span style=&quot;white-space: pre;&quot;&gt;&#x9;&lt;/span&gt;" style="whiteSpace=wrap;html=1;rounded=1;labelBackgroundColor=none;fillColor=#778BEB;strokeColor=#457B9D;fontColor=#FFFFFF;" vertex="1" parent="nt__oqQZL0XNKbxupTnA-49">
          <mxGeometry x="615" y="100" width="120" height="60" as="geometry" />
        </mxCell>
        <mxCell id="nt__oqQZL0XNKbxupTnA-12" value="" style="edgeStyle=orthogonalEdgeStyle;rounded=1;orthogonalLoop=1;jettySize=auto;html=1;entryX=0;entryY=0.5;entryDx=0;entryDy=0;labelBackgroundColor=none;strokeColor=#303952;fontColor=default;" edge="1" parent="nt__oqQZL0XNKbxupTnA-49" source="nt__oqQZL0XNKbxupTnA-9" target="nt__oqQZL0XNKbxupTnA-11">
          <mxGeometry relative="1" as="geometry" />
        </mxCell>
        <mxCell id="nt__oqQZL0XNKbxupTnA-13" value="NO" style="edgeLabel;html=1;align=center;verticalAlign=middle;resizable=0;points=[];rounded=1;labelBackgroundColor=none;fontColor=#1D3557;" vertex="1" connectable="0" parent="nt__oqQZL0XNKbxupTnA-12">
          <mxGeometry x="-0.2008" y="4" relative="1" as="geometry">
            <mxPoint x="6" y="14" as="offset" />
          </mxGeometry>
        </mxCell>
        <mxCell id="nt__oqQZL0XNKbxupTnA-15" value="" style="edgeStyle=orthogonalEdgeStyle;rounded=1;orthogonalLoop=1;jettySize=auto;html=1;entryX=0.5;entryY=0;entryDx=0;entryDy=0;labelBackgroundColor=none;strokeColor=#303952;fontColor=default;" edge="1" parent="nt__oqQZL0XNKbxupTnA-49" source="nt__oqQZL0XNKbxupTnA-9" target="nt__oqQZL0XNKbxupTnA-14">
          <mxGeometry relative="1" as="geometry" />
        </mxCell>
        <mxCell id="nt__oqQZL0XNKbxupTnA-16" value="Si" style="edgeLabel;html=1;align=center;verticalAlign=middle;resizable=0;points=[];rounded=1;labelBackgroundColor=none;fontColor=#1D3557;" vertex="1" connectable="0" parent="nt__oqQZL0XNKbxupTnA-15">
          <mxGeometry x="-0.0067" y="2" relative="1" as="geometry">
            <mxPoint x="-1" y="8" as="offset" />
          </mxGeometry>
        </mxCell>
        <mxCell id="nt__oqQZL0XNKbxupTnA-9" value="A una semana&amp;nbsp;&lt;div&gt;de su proximo mantenimineto&lt;/div&gt;" style="rhombus;whiteSpace=wrap;html=1;rounded=1;labelBackgroundColor=none;fillColor=#C44569;strokeColor=#FFFFFF;fontColor=#FFFFFF;" vertex="1" parent="nt__oqQZL0XNKbxupTnA-49">
          <mxGeometry x="137.5" y="210" width="155" height="140" as="geometry" />
        </mxCell>
        <mxCell id="nt__oqQZL0XNKbxupTnA-41" style="edgeStyle=orthogonalEdgeStyle;rounded=1;orthogonalLoop=1;jettySize=auto;html=1;exitX=1;exitY=0.5;exitDx=0;exitDy=0;entryX=1;entryY=0.5;entryDx=0;entryDy=0;labelBackgroundColor=none;strokeColor=#303952;fontColor=default;" edge="1" parent="nt__oqQZL0XNKbxupTnA-49" source="nt__oqQZL0XNKbxupTnA-11" target="nt__oqQZL0XNKbxupTnA-9">
          <mxGeometry relative="1" as="geometry" />
        </mxCell>
        <mxCell id="nt__oqQZL0XNKbxupTnA-11" value="Revisar la ultima fecha de mantenimiento" style="whiteSpace=wrap;html=1;rounded=1;labelBackgroundColor=none;fillColor=#546DE5;strokeColor=#457B9D;fontColor=#FFFFFF;" vertex="1" parent="nt__oqQZL0XNKbxupTnA-49">
          <mxGeometry x="270" y="350" width="120" height="60" as="geometry" />
        </mxCell>
        <mxCell id="nt__oqQZL0XNKbxupTnA-18" value="" style="edgeStyle=orthogonalEdgeStyle;rounded=1;orthogonalLoop=1;jettySize=auto;html=1;labelBackgroundColor=none;strokeColor=#303952;fontColor=default;" edge="1" parent="nt__oqQZL0XNKbxupTnA-49" source="nt__oqQZL0XNKbxupTnA-14" target="nt__oqQZL0XNKbxupTnA-17">
          <mxGeometry relative="1" as="geometry" />
        </mxCell>
        <mxCell id="nt__oqQZL0XNKbxupTnA-14" value="Se realiza el mantenimiento." style="whiteSpace=wrap;html=1;rounded=1;labelBackgroundColor=none;fillColor=#546DE5;strokeColor=#457B9D;fontColor=#FFFFFF;" vertex="1" parent="nt__oqQZL0XNKbxupTnA-49">
          <mxGeometry y="340" width="120" height="60" as="geometry" />
        </mxCell>
        <mxCell id="nt__oqQZL0XNKbxupTnA-20" value="" style="edgeStyle=orthogonalEdgeStyle;rounded=1;orthogonalLoop=1;jettySize=auto;html=1;entryX=0;entryY=0.5;entryDx=0;entryDy=0;labelBackgroundColor=none;strokeColor=#303952;fontColor=default;" edge="1" parent="nt__oqQZL0XNKbxupTnA-49" source="nt__oqQZL0XNKbxupTnA-17" target="nt__oqQZL0XNKbxupTnA-46">
          <mxGeometry relative="1" as="geometry">
            <mxPoint x="270" y="480" as="targetPoint" />
            <Array as="points" />
          </mxGeometry>
        </mxCell>
        <mxCell id="nt__oqQZL0XNKbxupTnA-17" value="Se marca cuando el matenimiento ha sido realizado" style="rounded=1;whiteSpace=wrap;html=1;labelBackgroundColor=none;fillColor=#546DE5;strokeColor=#457B9D;fontColor=#FFFFFF;" vertex="1" parent="nt__oqQZL0XNKbxupTnA-49">
          <mxGeometry y="450" width="120" height="60" as="geometry" />
        </mxCell>
        <mxCell id="nt__oqQZL0XNKbxupTnA-22" value="Depreciacion&amp;nbsp;&lt;div&gt;i&lt;span style=&quot;background-color: initial;&quot;&gt;gual o mayor&lt;/span&gt;&lt;div&gt;&lt;div&gt;a 90%&lt;/div&gt;&lt;/div&gt;&lt;/div&gt;" style="rhombus;whiteSpace=wrap;html=1;rounded=1;labelBackgroundColor=none;fillColor=#C44569;strokeColor=#FFFFFF;fontColor=#FFFFFF;" vertex="1" parent="nt__oqQZL0XNKbxupTnA-49">
          <mxGeometry x="597.5" y="210" width="155" height="140" as="geometry" />
        </mxCell>
        <mxCell id="nt__oqQZL0XNKbxupTnA-24" value="" style="edgeStyle=orthogonalEdgeStyle;rounded=1;orthogonalLoop=1;jettySize=auto;html=1;entryX=0;entryY=0.5;entryDx=0;entryDy=0;exitX=0.5;exitY=1;exitDx=0;exitDy=0;labelBackgroundColor=none;strokeColor=#303952;fontColor=default;" edge="1" parent="nt__oqQZL0XNKbxupTnA-49" target="nt__oqQZL0XNKbxupTnA-29" source="nt__oqQZL0XNKbxupTnA-22">
          <mxGeometry relative="1" as="geometry">
            <mxPoint x="760" y="280" as="sourcePoint" />
          </mxGeometry>
        </mxCell>
        <mxCell id="nt__oqQZL0XNKbxupTnA-25" value="NO" style="edgeLabel;html=1;align=center;verticalAlign=middle;resizable=0;points=[];rounded=1;labelBackgroundColor=none;fontColor=#1D3557;" vertex="1" connectable="0" parent="nt__oqQZL0XNKbxupTnA-24">
          <mxGeometry x="-0.2008" y="4" relative="1" as="geometry">
            <mxPoint x="6" y="14" as="offset" />
          </mxGeometry>
        </mxCell>
        <mxCell id="nt__oqQZL0XNKbxupTnA-26" value="" style="edgeStyle=orthogonalEdgeStyle;rounded=1;orthogonalLoop=1;jettySize=auto;html=1;entryX=0.5;entryY=0;entryDx=0;entryDy=0;labelBackgroundColor=none;strokeColor=#303952;fontColor=default;" edge="1" parent="nt__oqQZL0XNKbxupTnA-49" target="nt__oqQZL0XNKbxupTnA-31" source="nt__oqQZL0XNKbxupTnA-22">
          <mxGeometry relative="1" as="geometry">
            <mxPoint x="600" y="280" as="sourcePoint" />
          </mxGeometry>
        </mxCell>
        <mxCell id="nt__oqQZL0XNKbxupTnA-27" value="Si" style="edgeLabel;html=1;align=center;verticalAlign=middle;resizable=0;points=[];rounded=1;labelBackgroundColor=none;fontColor=#1D3557;" vertex="1" connectable="0" parent="nt__oqQZL0XNKbxupTnA-26">
          <mxGeometry x="-0.0067" y="2" relative="1" as="geometry">
            <mxPoint x="-1" y="8" as="offset" />
          </mxGeometry>
        </mxCell>
        <mxCell id="nt__oqQZL0XNKbxupTnA-38" style="edgeStyle=orthogonalEdgeStyle;rounded=1;orthogonalLoop=1;jettySize=auto;html=1;exitX=1;exitY=0.5;exitDx=0;exitDy=0;entryX=1;entryY=0.5;entryDx=0;entryDy=0;labelBackgroundColor=none;strokeColor=#303952;fontColor=default;" edge="1" parent="nt__oqQZL0XNKbxupTnA-49" source="nt__oqQZL0XNKbxupTnA-29" target="nt__oqQZL0XNKbxupTnA-22">
          <mxGeometry relative="1" as="geometry">
            <Array as="points">
              <mxPoint x="860" y="380" />
              <mxPoint x="860" y="280" />
            </Array>
          </mxGeometry>
        </mxCell>
        <mxCell id="nt__oqQZL0XNKbxupTnA-29" value="Esperar hasta que la depreciacion llegua a 90%" style="whiteSpace=wrap;html=1;rounded=1;labelBackgroundColor=none;fillColor=#546DE5;strokeColor=#457B9D;fontColor=#FFFFFF;" vertex="1" parent="nt__oqQZL0XNKbxupTnA-49">
          <mxGeometry x="720" y="350" width="120" height="60" as="geometry" />
        </mxCell>
        <mxCell id="nt__oqQZL0XNKbxupTnA-30" value="" style="edgeStyle=orthogonalEdgeStyle;rounded=1;orthogonalLoop=1;jettySize=auto;html=1;labelBackgroundColor=none;strokeColor=#303952;fontColor=default;" edge="1" parent="nt__oqQZL0XNKbxupTnA-49" source="nt__oqQZL0XNKbxupTnA-31" target="nt__oqQZL0XNKbxupTnA-33">
          <mxGeometry relative="1" as="geometry" />
        </mxCell>
        <mxCell id="nt__oqQZL0XNKbxupTnA-31" value="Notifica, para gestionar el reemplazo" style="whiteSpace=wrap;html=1;rounded=1;labelBackgroundColor=none;fillColor=#546DE5;strokeColor=#457B9D;fontColor=#FFFFFF;" vertex="1" parent="nt__oqQZL0XNKbxupTnA-49">
          <mxGeometry x="460" y="340" width="120" height="60" as="geometry" />
        </mxCell>
        <mxCell id="nt__oqQZL0XNKbxupTnA-44" value="" style="edgeStyle=orthogonalEdgeStyle;rounded=1;orthogonalLoop=1;jettySize=auto;html=1;entryX=1;entryY=0.5;entryDx=0;entryDy=0;labelBackgroundColor=none;strokeColor=#303952;fontColor=default;" edge="1" parent="nt__oqQZL0XNKbxupTnA-49" source="nt__oqQZL0XNKbxupTnA-33" target="nt__oqQZL0XNKbxupTnA-46">
          <mxGeometry relative="1" as="geometry" />
        </mxCell>
        <mxCell id="nt__oqQZL0XNKbxupTnA-33" value="Se elimina el equipo que fue reemplazado" style="rounded=1;whiteSpace=wrap;html=1;labelBackgroundColor=none;fillColor=#546DE5;strokeColor=#457B9D;fontColor=#FFFFFF;" vertex="1" parent="nt__oqQZL0XNKbxupTnA-49">
          <mxGeometry x="460" y="450" width="120" height="60" as="geometry" />
        </mxCell>
        <mxCell id="nt__oqQZL0XNKbxupTnA-42" value="Pantalla muestra infromacion&amp;nbsp;&lt;div&gt;actualizada&lt;/div&gt;" style="shape=parallelogram;perimeter=parallelogramPerimeter;whiteSpace=wrap;html=1;fixedSize=1;rounded=1;labelBackgroundColor=none;fillColor=#303952;strokeColor=#457B9D;fontColor=#FFFFFF;" vertex="1" parent="nt__oqQZL0XNKbxupTnA-49">
          <mxGeometry x="400" y="560" width="140" height="60" as="geometry" />
        </mxCell>
        <mxCell id="nt__oqQZL0XNKbxupTnA-45" value="FIN" style="strokeWidth=2;html=1;shape=mxgraph.flowchart.terminator;whiteSpace=wrap;rounded=1;labelBackgroundColor=none;fillColor=#4A4A4A;strokeColor=#4A4A4A;fontColor=#FFFFFF;" vertex="1" parent="nt__oqQZL0XNKbxupTnA-49">
          <mxGeometry x="600" y="560" width="100" height="60" as="geometry" />
        </mxCell>
        <mxCell id="nt__oqQZL0XNKbxupTnA-47" style="edgeStyle=orthogonalEdgeStyle;rounded=1;orthogonalLoop=1;jettySize=auto;html=1;exitX=0.5;exitY=1;exitDx=0;exitDy=0;entryX=0;entryY=0.5;entryDx=0;entryDy=0;labelBackgroundColor=none;strokeColor=#303952;fontColor=default;" edge="1" parent="nt__oqQZL0XNKbxupTnA-49" source="nt__oqQZL0XNKbxupTnA-46" target="nt__oqQZL0XNKbxupTnA-42">
          <mxGeometry relative="1" as="geometry">
            <Array as="points">
              <mxPoint x="335" y="590" />
            </Array>
          </mxGeometry>
        </mxCell>
        <mxCell id="nt__oqQZL0XNKbxupTnA-46" value="Actualiza las&lt;div&gt;Fechas&lt;/div&gt;" style="rounded=1;whiteSpace=wrap;html=1;labelBackgroundColor=none;fillColor=#546DE5;strokeColor=#457B9D;fontColor=#FFFFFF;" vertex="1" parent="nt__oqQZL0XNKbxupTnA-49">
          <mxGeometry x="275" y="450" width="120" height="60" as="geometry" />
        </mxCell>
        <mxCell id="nt__oqQZL0XNKbxupTnA-48" style="edgeStyle=orthogonalEdgeStyle;rounded=1;orthogonalLoop=1;jettySize=auto;html=1;exitX=1;exitY=0.5;exitDx=0;exitDy=0;entryX=0;entryY=0.5;entryDx=0;entryDy=0;entryPerimeter=0;labelBackgroundColor=none;strokeColor=#303952;fontColor=default;" edge="1" parent="nt__oqQZL0XNKbxupTnA-49" source="nt__oqQZL0XNKbxupTnA-42" target="nt__oqQZL0XNKbxupTnA-45">
          <mxGeometry relative="1" as="geometry" />
        </mxCell>
      </root>
    </mxGraphModel>
  </diagram>
</mxfile>
